<svg width="11" height="13" viewBox="0 0 48 100" fill="none" xmlns="http://www.w3.org/2000/svg">
<path fill-rule="evenodd" clip-rule="evenodd" d="M15.7852 23.617C15.7852 19.5745 17.5034 14.8936 22.443 14.8936C29.2081 14.8936 29.6376 25.2128 29.6376 29.3617H45.5302C45.3154 14.6809 40.4832 0 22.8725 0C7.51678 0 0 12.234 0 26.2766C0 54.4681 32.2148 58.9362 32.2148 75.9575C32.2148 80.5319 29.5302 85.2128 24.1611 85.2128C17.0738 85.2128 16.4295 74.3617 16.4295 70.2128H0.751678C0.751678 85.3191 5.79866 100 23.5168 100C39.302 100 48 88.2979 48 73.4043C47.8926 45.8511 15.7852 39.7872 15.7852 23.617Z" fill="white"/>
</svg>
